<svg width="179" height="31" viewBox="0 0 179 31" fill="none" xmlns="http://www.w3.org/2000/svg">
<path d="M10.848 24.32C8.608 24.32 6.74133 24.0107 5.248 23.392C3.776 22.752 2.66667 21.9307 1.92 20.928C1.19467 19.904 0.810667 18.8267 0.768 17.696C0.768 17.504 0.832 17.344 0.96 17.216C1.088 17.088 1.248 17.024 1.44 17.024H6.528C6.82667 17.024 7.06133 17.0773 7.232 17.184C7.40267 17.2693 7.584 17.3973 7.776 17.568C7.968 17.8027 8.192 18.0267 8.448 18.24C8.704 18.432 9.03467 18.592 9.44 18.72C9.84533 18.8267 10.3147 18.88 10.848 18.88C11.8293 18.88 12.5867 18.752 13.12 18.496C13.6533 18.2187 13.92 17.8453 13.92 17.376C13.92 17.0133 13.7707 16.7147 13.472 16.48C13.1947 16.2453 12.7147 16.032 12.032 15.84C11.3493 15.648 10.4213 15.4453 9.248 15.232C7.60533 14.9547 6.18667 14.5493 4.992 14.016C3.79733 13.4613 2.88 12.7253 2.24 11.808C1.62133 10.8693 1.312 9.71733 1.312 8.352C1.312 6.96533 1.696 5.73867 2.464 4.672C3.25333 3.60533 4.34133 2.77333 5.728 2.176C7.136 1.57867 8.768 1.28 10.624 1.28C12.16 1.28 13.5147 1.48267 14.688 1.888C15.8827 2.29333 16.8853 2.82667 17.696 3.488C18.5067 4.128 19.1253 4.82133 19.552 5.568C19.9787 6.31467 20.2027 7.02933 20.224 7.712C20.224 7.904 20.1493 8.07467 20 8.224C19.872 8.352 19.7227 8.416 19.552 8.416H14.208C13.952 8.416 13.728 8.37333 13.536 8.288C13.3653 8.20267 13.2053 8.064 13.056 7.872C12.9493 7.57333 12.6827 7.30667 12.256 7.072C11.8293 6.83733 11.2853 6.72 10.624 6.72C9.89867 6.72 9.344 6.848 8.96 7.104C8.576 7.33867 8.384 7.69067 8.384 8.16C8.384 8.48 8.50133 8.75733 8.736 8.992C8.97067 9.22667 9.38667 9.44 9.984 9.632C10.5813 9.80267 11.4133 9.99467 12.48 10.208C14.5067 10.5067 16.1387 10.9333 17.376 11.488C18.6347 12.0427 19.552 12.768 20.128 13.664C20.704 14.56 20.992 15.68 20.992 17.024C20.992 18.5387 20.5547 19.84 19.68 20.928C18.8053 22.016 17.6 22.8587 16.064 23.456C14.5493 24.032 12.8107 24.32 10.848 24.32ZM24.246 24C24.0113 24 23.8087 23.9253 23.638 23.776C23.4887 23.6053 23.414 23.4027 23.414 23.168V8.192C23.414 7.95733 23.4887 7.76533 23.638 7.616C23.8087 7.44533 24.0113 7.36 24.246 7.36H28.63C28.8647 7.36 29.0567 7.44533 29.206 7.616C29.3767 7.76533 29.462 7.95733 29.462 8.192V9.248C29.8673 8.736 30.454 8.256 31.222 7.808C31.99 7.33867 32.8967 7.08267 33.942 7.04C36.438 6.976 38.1233 7.872 38.998 9.728C39.4887 8.96 40.182 8.32 41.078 7.808C41.9953 7.296 42.966 7.04 43.99 7.04C45.0993 7.04 46.0913 7.296 46.966 7.808C47.862 8.29867 48.5767 9.06667 49.11 10.112C49.6433 11.136 49.91 12.48 49.91 14.144V23.168C49.91 23.4027 49.8247 23.6053 49.654 23.776C49.5047 23.9253 49.3127 24 49.078 24H44.406C44.1713 24 43.9687 23.9253 43.798 23.776C43.6487 23.6053 43.574 23.4027 43.574 23.168V14.336C43.574 13.7813 43.4887 13.344 43.318 13.024C43.1473 12.6827 42.9233 12.4373 42.646 12.288C42.39 12.1173 42.0807 12.032 41.718 12.032C41.3767 12.032 41.0673 12.1173 40.79 12.288C40.5127 12.4373 40.2887 12.6827 40.118 13.024C39.9687 13.344 39.894 13.7813 39.894 14.336V23.168C39.894 23.4027 39.8087 23.6053 39.638 23.776C39.4887 23.9253 39.2967 24 39.062 24H34.39C34.1553 24 33.9527 23.9253 33.782 23.776C33.6327 23.6053 33.558 23.4027 33.558 23.168V14.336C33.558 13.7813 33.4727 13.344 33.302 13.024C33.1313 12.6827 32.9073 12.4373 32.63 12.288C32.374 12.1173 32.0647 12.032 31.702 12.032C31.3607 12.032 31.0513 12.1173 30.774 12.288C30.4967 12.4587 30.2727 12.704 30.102 13.024C29.9313 13.344 29.846 13.7813 29.846 14.336V23.168C29.846 23.4027 29.7607 23.6053 29.59 23.776C29.4407 23.9253 29.2487 24 29.014 24H24.246ZM53.9023 24C53.6676 24 53.4649 23.9253 53.2943 23.776C53.1449 23.6053 53.0703 23.4027 53.0703 23.168V8.192C53.0703 7.95733 53.1449 7.76533 53.2943 7.616C53.4649 7.44533 53.6676 7.36 53.9023 7.36H58.6383C58.8729 7.36 59.0756 7.44533 59.2463 7.616C59.4169 7.76533 59.5023 7.95733 59.5023 8.192V23.168C59.5023 23.4027 59.4169 23.6053 59.2463 23.776C59.0756 23.9253 58.8729 24 58.6383 24H53.9023ZM53.9663 5.28C53.7316 5.28 53.5289 5.20533 53.3583 5.056C53.2089 4.88533 53.1343 4.68267 53.1343 4.448V1.088C53.1343 0.853332 53.2089 0.650665 53.3583 0.48C53.5289 0.309333 53.7316 0.223999 53.9663 0.223999H58.5743C58.8089 0.223999 59.0116 0.309333 59.1823 0.48C59.3529 0.650665 59.4383 0.853332 59.4383 1.088V4.448C59.4383 4.68267 59.3529 4.88533 59.1823 5.056C59.0116 5.20533 58.8089 5.28 58.5743 5.28H53.9663ZM63.621 24C63.3863 24 63.1837 23.9253 63.013 23.776C62.8637 23.6053 62.789 23.4027 62.789 23.168V2.112C62.789 1.87733 62.8637 1.68533 63.013 1.536C63.1837 1.36533 63.3863 1.28 63.621 1.28H68.389C68.6023 1.28 68.7943 1.36533 68.965 1.536C69.1357 1.68533 69.221 1.87733 69.221 2.112V23.168C69.221 23.4027 69.1357 23.6053 68.965 23.776C68.7943 23.9253 68.6023 24 68.389 24H63.621ZM80.699 24.32C78.0323 24.32 75.9097 23.6373 74.331 22.272C72.7737 20.8853 71.9737 18.7733 71.931 15.936C71.931 15.8507 71.931 15.744 71.931 15.616C71.931 15.4667 71.931 15.36 71.931 15.296C71.995 13.5253 72.379 12.032 73.083 10.816C73.8083 9.57867 74.811 8.64 76.091 8C77.3923 7.36 78.9177 7.04 80.667 7.04C82.6297 7.04 84.251 7.43467 85.531 8.224C86.8323 8.992 87.803 10.0267 88.443 11.328C89.083 12.608 89.403 14.048 89.403 15.648V16.544C89.403 16.7573 89.3177 16.9493 89.147 17.12C88.9763 17.2907 88.7737 17.376 88.539 17.376H78.683C78.683 17.376 78.683 17.3973 78.683 17.44C78.683 17.4827 78.683 17.5253 78.683 17.568C78.683 18.08 78.747 18.5387 78.875 18.944C79.0243 19.328 79.2483 19.6373 79.547 19.872C79.8457 20.0853 80.2083 20.192 80.635 20.192C80.9123 20.192 81.147 20.1493 81.339 20.064C81.531 19.9787 81.691 19.872 81.819 19.744C81.9683 19.5947 82.0963 19.456 82.203 19.328C82.395 19.136 82.555 19.0187 82.683 18.976C82.811 18.912 83.003 18.88 83.259 18.88H88.283C88.475 18.88 88.635 18.944 88.763 19.072C88.9123 19.2 88.9763 19.36 88.955 19.552C88.9337 19.936 88.7523 20.4053 88.411 20.96C88.0697 21.4933 87.5577 22.016 86.875 22.528C86.2137 23.04 85.3603 23.4667 84.315 23.808C83.2697 24.1493 82.0643 24.32 80.699 24.32ZM78.683 13.792H82.651V13.728C82.651 13.152 82.5763 12.6613 82.427 12.256C82.2777 11.8507 82.0537 11.552 81.755 11.36C81.4563 11.1467 81.0937 11.04 80.667 11.04C80.2403 11.04 79.8777 11.1467 79.579 11.36C79.2803 11.552 79.0563 11.8507 78.907 12.256C78.7577 12.6613 78.683 13.152 78.683 13.728V13.792ZM99.566 24C99.3527 24 99.1607 23.9253 98.99 23.776C98.8193 23.6053 98.734 23.4027 98.734 23.168V2.432C98.734 2.19733 98.8193 2.00533 98.99 1.856C99.1607 1.68533 99.3527 1.6 99.566 1.6H109.774C111.715 1.6 113.305 1.856 114.542 2.368C115.779 2.88 116.697 3.616 117.294 4.576C117.891 5.536 118.19 6.72 118.19 8.128C118.19 8.85333 118.041 9.504 117.742 10.08C117.465 10.6347 117.123 11.104 116.718 11.488C116.313 11.8507 115.929 12.1173 115.566 12.288C116.398 12.6507 117.123 13.2693 117.742 14.144C118.361 14.9973 118.67 15.9787 118.67 17.088C118.67 18.5813 118.329 19.84 117.646 20.864C116.985 21.888 116.014 22.6667 114.734 23.2C113.475 23.7333 111.929 24 110.094 24H99.566ZM105.614 19.168H109.358C110.083 19.168 110.617 18.9547 110.958 18.528C111.299 18.08 111.47 17.5893 111.47 17.056C111.47 16.5013 111.289 16.0213 110.926 15.616C110.563 15.1893 110.041 14.976 109.358 14.976H105.614V19.168ZM105.614 10.272H109.038C109.721 10.272 110.222 10.08 110.542 9.696C110.862 9.312 111.022 8.864 111.022 8.352C111.022 7.84 110.862 7.392 110.542 7.008C110.222 6.624 109.721 6.432 109.038 6.432H105.614V10.272ZM126.566 24.32C125.393 24.32 124.337 24.096 123.398 23.648C122.481 23.2 121.755 22.6027 121.222 21.856C120.71 21.088 120.454 20.2347 120.454 19.296C120.454 17.76 121.073 16.5547 122.31 15.68C123.569 14.784 125.243 14.1653 127.334 13.824L131.014 13.248V13.024C131.014 12.3627 130.907 11.872 130.694 11.552C130.502 11.2107 130.086 11.04 129.446 11.04C128.998 11.04 128.635 11.1253 128.358 11.296C128.081 11.4667 127.825 11.712 127.59 12.032C127.377 12.2667 127.099 12.384 126.758 12.384H122.246C122.011 12.384 121.83 12.32 121.702 12.192C121.574 12.064 121.521 11.8933 121.542 11.68C121.563 11.296 121.723 10.848 122.022 10.336C122.321 9.80267 122.779 9.29067 123.398 8.8C124.038 8.288 124.859 7.872 125.862 7.552C126.865 7.21067 128.07 7.04 129.478 7.04C130.907 7.04 132.134 7.2 133.158 7.52C134.182 7.84 135.025 8.288 135.686 8.864C136.347 9.44 136.838 10.144 137.158 10.976C137.478 11.7867 137.638 12.6933 137.638 13.696V23.168C137.638 23.4027 137.553 23.6053 137.382 23.776C137.233 23.9253 137.041 24 136.806 24H132.134C131.921 24 131.729 23.9253 131.558 23.776C131.387 23.6053 131.302 23.4027 131.302 23.168V22.144C131.025 22.5707 130.651 22.944 130.182 23.264C129.734 23.584 129.201 23.84 128.582 24.032C127.985 24.224 127.313 24.32 126.566 24.32ZM128.422 20.128C128.955 20.128 129.414 20.0213 129.798 19.808C130.203 19.5733 130.523 19.2213 130.758 18.752C130.993 18.2827 131.11 17.696 131.11 16.992V16.768L128.806 17.216C128.017 17.3653 127.462 17.5893 127.142 17.888C126.822 18.1653 126.662 18.4747 126.662 18.816C126.662 19.072 126.737 19.296 126.886 19.488C127.035 19.68 127.238 19.84 127.494 19.968C127.771 20.0747 128.081 20.128 128.422 20.128ZM151.86 24.32C150.708 24.32 149.738 24.1387 148.948 23.776C148.18 23.392 147.53 22.8907 146.996 22.272V23.168C146.996 23.4027 146.911 23.6053 146.74 23.776C146.591 23.9253 146.399 24 146.164 24H141.652C141.418 24 141.215 23.9253 141.044 23.776C140.895 23.6053 140.82 23.4027 140.82 23.168V2.112C140.82 1.87733 140.895 1.68533 141.044 1.536C141.215 1.36533 141.418 1.28 141.652 1.28H146.58C146.794 1.28 146.986 1.36533 147.156 1.536C147.327 1.68533 147.412 1.87733 147.412 2.112V8.736C147.924 8.224 148.543 7.81867 149.268 7.52C150.015 7.2 150.879 7.04 151.86 7.04C152.863 7.04 153.77 7.21067 154.58 7.552C155.391 7.872 156.095 8.34133 156.692 8.96C157.29 9.57867 157.759 10.3573 158.1 11.296C158.442 12.2133 158.634 13.2693 158.676 14.464C158.698 14.912 158.708 15.3067 158.708 15.648C158.708 15.9893 158.698 16.3947 158.676 16.864C158.612 18.1227 158.41 19.2213 158.068 20.16C157.727 21.0987 157.258 21.8773 156.66 22.496C156.063 23.1147 155.359 23.5733 154.548 23.872C153.759 24.1707 152.863 24.32 151.86 24.32ZM149.684 19.328C150.239 19.328 150.666 19.2213 150.964 19.008C151.284 18.7733 151.508 18.464 151.636 18.08C151.786 17.6747 151.882 17.216 151.924 16.704C151.988 16.0213 151.988 15.3387 151.924 14.656C151.882 14.144 151.786 13.696 151.636 13.312C151.508 12.9067 151.284 12.5973 150.964 12.384C150.666 12.1493 150.239 12.032 149.684 12.032C149.151 12.032 148.724 12.1387 148.404 12.352C148.084 12.5653 147.839 12.8427 147.668 13.184C147.519 13.5253 147.434 13.92 147.412 14.368C147.391 14.816 147.38 15.2107 147.38 15.552C147.38 15.8933 147.391 16.2987 147.412 16.768C147.434 17.2373 147.508 17.664 147.636 18.048C147.786 18.432 148.02 18.7413 148.34 18.976C148.682 19.2107 149.13 19.328 149.684 19.328ZM164.02 30.08C163.828 30.08 163.658 30.016 163.508 29.888C163.38 29.76 163.316 29.6 163.316 29.408C163.316 29.3653 163.316 29.312 163.316 29.248C163.338 29.184 163.359 29.1093 163.38 29.024L165.94 22.976L159.764 8.416C159.722 8.288 159.7 8.18133 159.7 8.096C159.743 7.904 159.828 7.73333 159.956 7.584C160.106 7.43467 160.276 7.36 160.468 7.36H164.98C165.3 7.36 165.524 7.44533 165.652 7.616C165.802 7.76533 165.908 7.91467 165.972 8.064L169.108 16.384L172.34 8.064C172.426 7.89333 172.543 7.73333 172.692 7.584C172.842 7.43467 173.066 7.36 173.364 7.36H177.844C178.015 7.36 178.175 7.43467 178.324 7.584C178.474 7.712 178.548 7.86133 178.548 8.032C178.548 8.16 178.527 8.288 178.484 8.416L169.46 29.376C169.375 29.5467 169.247 29.7067 169.076 29.856C168.927 30.0053 168.703 30.08 168.404 30.08H164.02Z" fill="#888888"/>
</svg>
