<svg width="30" height="30" viewBox="0 0 30 30" fill="none" xmlns="http://www.w3.org/2000/svg">
<path d="M22.519 7.67123C19.8121 8.79235 8.20533 13.6 4.99839 14.9103C2.84767 15.7496 4.10673 16.5366 4.10673 16.5366C4.10673 16.5366 5.94263 17.166 7.51651 17.6381C9.09017 18.1102 9.92947 17.5858 9.92947 17.5858L17.3259 12.6023C19.9487 10.8188 19.3193 12.2875 18.6897 12.9171C17.3259 14.2811 15.0702 16.4316 13.1817 18.1628C12.3424 18.8972 12.762 19.5266 13.1294 19.8414C14.4932 20.9955 18.2178 23.3561 18.4274 23.5134C19.5356 24.298 21.7153 25.4272 22.0469 23.0413L23.3583 14.8056C23.778 12.0255 24.1976 9.45499 24.2499 8.72063C24.4075 6.93687 22.519 7.67123 22.519 7.67123Z" fill="#888888"/>
<rect x="0.5" y="0.5" width="29" height="29" rx="11.5" stroke="#888888"/>
</svg>
