<svg width="30" height="30" viewBox="0 0 30 30" fill="none" xmlns="http://www.w3.org/2000/svg">
<rect x="0.5" y="0.5" width="29" height="29" rx="11.5" stroke="#888888"/>
<path d="M17.3217 15.155C16.9194 15.0037 16.9194 14.4261 16.8944 14.0238C16.7939 12.5909 17.2967 10.4033 16.6933 9.47318C16.2661 8.91964 14.204 8.97033 12.9473 9.04596C12.5949 9.09665 12.1676 9.17147 11.8659 9.32273C11.5642 9.47399 11.2625 9.72501 11.2625 9.95109C11.2625 10.2777 12.0172 10.2279 12.2932 10.6551C12.5949 11.1081 12.5949 12.088 12.5949 12.8926C12.5949 13.8226 12.4436 15.0552 12.0671 15.1051C11.4886 15.1301 11.1619 14.5516 10.8602 14.1244C10.2568 13.2948 9.65339 12.2634 9.20042 11.2577C8.97434 10.7299 8.84803 10.1514 8.52137 9.92535C8.01852 9.57295 7.11339 9.54801 6.2332 9.57295C5.42864 9.59789 4.27168 9.49732 4.0456 9.97523C3.8694 10.503 4.24674 11.0059 4.44788 11.4339C5.47852 13.6714 6.5848 15.6329 7.9429 17.493C9.20042 19.2277 10.3815 20.6107 12.6946 21.3397C13.3487 21.5408 16.2146 22.1193 16.7931 21.3397C16.9942 21.0379 16.9443 20.3589 17.0449 19.856C17.1455 19.3532 17.271 18.8503 17.7489 18.8254C18.1512 18.8005 18.3773 19.1521 18.6291 19.4039C18.9058 19.6807 19.1319 19.9067 19.3331 20.1586C19.811 20.6365 20.3138 21.2898 20.9173 21.5416C21.7468 21.894 23.0292 21.7934 24.2361 21.7427C25.2168 21.7178 25.9208 21.5167 25.9964 20.9382C26.0471 20.4852 25.5435 19.8319 25.2418 19.4546C24.4871 18.5245 24.1355 18.2477 23.2802 17.3925C22.9029 17.0151 22.425 16.6129 22.425 16.1607C22.4001 15.8839 22.6261 15.6329 22.8273 15.3561C23.7075 14.0487 24.5877 13.1186 25.3922 11.7606C25.6183 11.3583 26.1469 10.4282 25.9458 9.97523C25.7197 9.47238 24.4621 9.62283 23.6825 9.62283C22.6768 9.62283 21.3694 9.5472 21.1176 9.74834C20.6397 10.075 20.4385 10.6036 20.2125 11.1064C19.7096 12.2634 19.0306 13.4445 18.3266 14.3247C18.0747 14.6264 17.5976 15.2548 17.3209 15.1542L17.3217 15.155Z" fill="#888888"/>
</svg>
