<svg width="30" height="30" viewBox="0 0 30 30" fill="none" xmlns="http://www.w3.org/2000/svg">
<path fill-rule="evenodd" clip-rule="evenodd" d="M22.2101 7.75034C13.7546 -0.460278 0.489935 9.6969 6.23678 19.9922L4.79688 25.2494L10.177 23.8387C20.4701 29.2809 30.3241 16.0921 22.2101 7.75034Z" fill="#888888"/>
<path fill-rule="evenodd" clip-rule="evenodd" d="M15.0314 23.5237C13.361 23.5297 11.7372 23.0281 10.3366 22.1388L7.08152 22.9922L7.95052 19.8196C6.97416 18.3726 6.4235 16.6756 6.43098 14.9191C6.41558 7.3183 15.7645 3.443 21.1151 8.84378C26.5086 14.1986 22.6344 23.5404 15.0314 23.5237Z" fill="#1C1C1E"/>
<path fill-rule="evenodd" clip-rule="evenodd" d="M19.7487 17.0843C19.4902 16.955 18.2191 16.3295 17.9821 16.2433C17.7452 16.157 17.5727 16.1139 17.4005 16.3728C17.228 16.6316 16.733 17.2137 16.5821 17.3859C16.4314 17.5586 16.2804 17.5802 16.0219 17.4508C15.4634 17.5254 12.5979 15.1021 12.5046 14.3774C12.3539 14.1189 12.4885 13.9788 12.6181 13.8499C12.8432 13.6028 13.1281 13.2922 13.2642 12.9659C13.3505 12.7932 13.3074 12.6423 13.2427 12.5129C13.178 12.3836 12.6755 11.1049 12.4456 10.5939C12.252 10.1633 12.0481 10.1548 11.8639 10.1471C11.4277 10.1539 11.09 10.0406 10.679 10.4645C9.13814 11.9475 9.84478 14.0316 10.8297 15.2946C10.9589 15.4671 12.6183 18.1608 15.2462 19.197C17.4302 20.0583 17.8746 19.8869 18.3487 19.8438C18.8228 19.8007 19.8783 19.2185 20.0937 18.6149C20.3091 18.0112 20.3091 17.4937 20.2446 17.3857C20.1797 17.2784 20.0072 17.2137 19.7487 17.0843Z" fill="#888888"/>
<rect x="0.5" y="0.5" width="29" height="29" rx="11.5" stroke="#888888"/>
</svg>
