<svg width="30" height="30" viewBox="0 0 30 30" fill="none" xmlns="http://www.w3.org/2000/svg">
<path d="M24.8474 10.0212C24.6109 9.13129 23.9146 8.43037 23.0302 8.19255C21.4275 7.76025 15 7.76025 15 7.76025C15 7.76025 8.57246 7.76025 6.96976 8.19255C6.08536 8.43037 5.38884 9.13129 5.15256 10.0212C4.7229 11.6345 4.7229 15 4.7229 15C4.7229 15 4.7229 18.3656 5.15234 19.9788C5.38862 20.8687 6.08514 21.5697 6.96954 21.8075C8.57246 22.2398 15 22.2398 15 22.2398C15 22.2398 21.4275 22.2398 23.0304 21.8075C23.9148 21.5694 24.6111 20.8687 24.8476 19.9788C25.2771 18.3656 25.2771 15 25.2771 15C25.2771 15 25.2771 11.6345 24.8474 10.0212Z" fill="#888888"/>
<path d="M12.8625 11.8931V18.1072L18.3251 15.0003L12.8625 11.8931Z" fill="#1C1C1E"/>
<rect x="0.5" y="0.5" width="29" height="29" rx="11.5" stroke="#888888"/>
</svg>
