<svg width="19" height="19" viewBox="0 0 19 19" fill="none" xmlns="http://www.w3.org/2000/svg">
<path d="M1 1L1.24798 1.08266C2.48363 1.49455 3.10146 1.70048 3.45483 2.19078C3.80822 2.68107 3.80822 3.33231 3.80822 4.63481V7.08447C3.80822 9.73206 3.80822 11.0559 4.63073 11.8784C5.45324 12.7009 6.77704 12.7009 9.42466 12.7009H11.2968M16.9132 12.7009H15.0411" stroke="black" stroke-width="1.40676" stroke-linecap="round"/>
<path d="M6.14837 15.0411C6.92384 15.0411 7.55248 15.6697 7.55248 16.4452C7.55248 17.2206 6.92384 17.8493 6.14837 17.8493C5.3729 17.8493 4.74426 17.2206 4.74426 16.4452C4.74426 15.6697 5.3729 15.0411 6.14837 15.0411Z" stroke="black" stroke-width="1.40676"/>
<path d="M14.5731 15.0412C15.3485 15.0412 15.9772 15.6697 15.9772 16.4453C15.9772 17.2207 15.3485 17.8494 14.5731 17.8494C13.7976 17.8494 13.1689 17.2207 13.1689 16.4453C13.1689 15.6697 13.7976 15.0412 14.5731 15.0412Z" stroke="black" stroke-width="1.40676"/>
<path d="M3.80823 3.8082H6.61645M4.27626 10.3607H14.1254C15.0235 10.3607 15.4725 10.3607 15.8242 10.1288C16.1759 9.89688 16.3528 9.48417 16.7066 8.65874L17.1078 7.72267C17.8655 5.95456 18.2444 5.07052 17.8283 4.43935C17.412 3.8082 16.4503 3.8082 14.5266 3.8082H10.3607" stroke="black" stroke-width="1.40676" stroke-linecap="round"/>
</svg>
